<svg width="534" height="122" viewBox="0 0 534 122" fill="none" xmlns="http://www.w3.org/2000/svg">
<mask id="mask0_1730_1334" style="mask-type:alpha" maskUnits="userSpaceOnUse" x="0" y="0" width="534" height="122">
<rect width="534" height="122" fill="#1E4982"/>
</mask>
<g mask="url(#mask0_1730_1334)">
<rect width="534" height="122" fill="#1E4982"/>
<path d="M564.079 14.6049C502.073 -30.9473 476.944 82.5655 515.62 77.9026C554.296 73.2397 485.068 -26.4621 427.472 7.52198C369.876 41.506 410.208 176.292 459.75 168.151C514.197 159.204 452.396 61.1939 382.1 79.8668C346.048 89.4431 309.764 136.543 298.455 165.933" stroke="#4997F8" stroke-width="23"/>
<path d="M413.651 25.6646C415.492 23.8882 417.775 23 420.5 23C423.225 23 425.471 23.8882 427.238 25.6646C429.079 27.5183 430 29.7967 430 32.5C430 35.2032 429.079 37.4431 427.238 39.2195C425.471 41.0731 423.225 42 420.5 42C417.775 42 415.492 41.0731 413.651 39.2195C411.884 37.4431 411 35.2032 411 32.5C411 29.7967 411.884 27.5183 413.651 25.6646Z" fill="#FF6161"/>
</g>
<path d="M97.9655 51.0162C98.6322 51.6721 99.4828 52 100.517 52C101.529 52 102.356 51.6721 103 51.0162C103.667 50.3351 104 49.5027 104 48.5189C104 47.5099 103.667 46.6775 103 46.0216C102.356 45.3405 101.529 45 100.517 45C99.4828 45 98.6322 45.3405 97.9655 46.0216C97.3218 46.6775 97 47.5099 97 48.5189C97 49.5027 97.3218 50.3351 97.9655 51.0162Z" fill="#FFD94E"/>
<path fill-rule="evenodd" clip-rule="evenodd" d="M90.0068 72.9854C92.1577 73.0735 94.6424 72.7569 96.2841 72.2181C97.1806 71.9238 98.0829 71.5468 98.961 71.0912C100.853 70.0205 102.843 68.4288 104.19 66.8539C105.6 65.0467 106.592 62.7976 106.592 60.2004C106.592 58.2187 105.998 56.4081 104.793 55.0573C103.584 53.702 101.922 53 100.205 53C96.1696 53 93.818 56.6963 93.818 60.3656C93.818 61.9363 94.155 63.6202 94.7998 65.2224C97.5191 64.2325 99.2135 62.2653 99.536 60.6873C99.5296 60.578 99.5264 60.4706 99.5264 60.3656C99.5264 59.6232 99.7469 59.1779 99.9123 58.9735C100.065 58.7851 100.167 58.7827 100.205 58.7827C100.365 58.7827 100.469 58.8348 100.557 58.9339C100.65 59.0374 100.883 59.3813 100.883 60.2004C100.883 60.3968 100.869 60.5937 100.841 60.7909L100.844 60.7914C100.835 60.8444 100.825 60.8974 100.815 60.9505C100.698 61.5875 100.432 62.2257 100.013 62.8532L100.012 62.8488C99.0087 64.4035 97.2177 65.8078 94.9653 66.5627C94.8189 66.6171 94.6719 66.6685 94.5246 66.7169C92.7549 67.2977 90.8215 67.2916 90.0062 67.2219C89.9824 67.2144 90.0371 67.2293 90.0068 67.2219V72.9854ZM105.012 72.7439C103.33 72.7439 101.825 72.3493 100.511 71.6946C102.535 70.4038 104.567 68.6327 105.821 66.9039C106.867 66.7447 107.471 66.2731 107.915 65.7328C108.579 64.923 109 63.7938 109.365 62.5202C109.402 62.3939 109.444 62.2308 109.495 62.0382C109.758 61.0292 110.233 59.2102 111.109 57.6281C112.255 55.5584 114.264 53.5023 117.647 53.1021C119.773 52.8506 122.141 53.4996 123.982 55.18C125.876 56.9086 127 59.5243 127 62.8055V72.0307H121.292V62.8055C121.292 60.9074 120.678 59.9481 120.161 59.4761C119.591 58.9559 118.875 58.7788 118.309 58.8458C117.226 58.974 116.607 59.5202 116.087 60.4575C115.603 61.3332 115.357 62.2508 115.087 63.2571L115.087 63.2573C115.011 63.5416 114.933 63.8329 114.847 64.1324C114.455 65.5023 113.775 67.6363 112.305 69.4287C110.717 71.3645 108.34 72.7439 105.012 72.7439Z" fill="#FFD94E"/>
<path d="M39.728 72L34.8 63.296H32.688V72H28.208V49.664H36.592C38.32 49.664 39.792 49.9733 41.008 50.592C42.224 51.1893 43.1307 52.0107 43.728 53.056C44.3467 54.08 44.656 55.232 44.656 56.512C44.656 57.984 44.2293 59.3173 43.376 60.512C42.5227 61.6853 41.2533 62.496 39.568 62.944L44.912 72H39.728ZM32.688 59.936H36.432C37.648 59.936 38.5547 59.648 39.152 59.072C39.7493 58.4747 40.048 57.6533 40.048 56.608C40.048 55.584 39.7493 54.7947 39.152 54.24C38.5547 53.664 37.648 53.376 36.432 53.376H32.688V59.936ZM65.188 62.752C65.188 63.392 65.1453 63.968 65.06 64.48H52.1C52.2067 65.76 52.6547 66.7627 53.444 67.488C54.2333 68.2133 55.204 68.576 56.356 68.576C58.02 68.576 59.204 67.8613 59.908 66.432H64.74C64.228 68.1387 63.2467 69.5467 61.796 70.656C60.3453 71.744 58.564 72.288 56.452 72.288C54.7453 72.288 53.2093 71.9147 51.844 71.168C50.5 70.4 49.444 69.3227 48.676 67.936C47.9293 66.5493 47.556 64.9493 47.556 63.136C47.556 61.3013 47.9293 59.6907 48.676 58.304C49.4227 56.9173 50.468 55.8507 51.812 55.104C53.156 54.3573 54.7027 53.984 56.452 53.984C58.1373 53.984 59.6413 54.3467 60.964 55.072C62.308 55.7973 63.3427 56.832 64.068 58.176C64.8147 59.4987 65.188 61.024 65.188 62.752ZM60.548 61.472C60.5267 60.32 60.1107 59.4027 59.3 58.72C58.4893 58.016 57.4973 57.664 56.324 57.664C55.2147 57.664 54.276 58.0053 53.508 58.688C52.7613 59.3493 52.3027 60.2773 52.132 61.472H60.548ZM75.402 53.984C76.7247 53.984 77.8873 54.2507 78.89 54.784C79.8927 55.296 80.682 55.968 81.258 56.8V54.272H85.77V72.128C85.77 73.7707 85.4393 75.232 84.778 76.512C84.1167 77.8133 83.1247 78.8373 81.802 79.584C80.4793 80.352 78.8793 80.736 77.002 80.736C74.4847 80.736 72.4153 80.1493 70.794 78.976C69.194 77.8027 68.2873 76.2027 68.074 74.176H72.522C72.7567 74.9867 73.258 75.6267 74.026 76.096C74.8153 76.5867 75.7647 76.832 76.874 76.832C78.1753 76.832 79.2313 76.4373 80.042 75.648C80.8527 74.88 81.258 73.7067 81.258 72.128V69.376C80.682 70.208 79.882 70.9013 78.858 71.456C77.8553 72.0107 76.7033 72.288 75.402 72.288C73.9087 72.288 72.5433 71.904 71.306 71.136C70.0687 70.368 69.0873 69.2907 68.362 67.904C67.658 66.496 67.306 64.8853 67.306 63.072C67.306 61.28 67.658 59.6907 68.362 58.304C69.0873 56.9173 70.058 55.8507 71.274 55.104C72.5113 54.3573 73.8873 53.984 75.402 53.984ZM81.258 63.136C81.258 62.048 81.0447 61.12 80.618 60.352C80.1913 59.5627 79.6153 58.9653 78.89 58.56C78.1647 58.1333 77.386 57.92 76.554 57.92C75.722 57.92 74.954 58.1227 74.25 58.528C73.546 58.9333 72.97 59.5307 72.522 60.32C72.0953 61.088 71.882 62.0053 71.882 63.072C71.882 64.1387 72.0953 65.0773 72.522 65.888C72.97 66.6773 73.546 67.2853 74.25 67.712C74.9753 68.1387 75.7433 68.352 76.554 68.352C77.386 68.352 78.1647 68.1493 78.89 67.744C79.6153 67.3173 80.1913 66.72 80.618 65.952C81.0447 65.1627 81.258 64.224 81.258 63.136Z" fill="white"/>
<path d="M131.056 63.072C131.056 61.28 131.408 59.6907 132.112 58.304C132.837 56.9173 133.808 55.8507 135.024 55.104C136.261 54.3573 137.637 53.984 139.152 53.984C140.475 53.984 141.627 54.2507 142.608 54.784C143.611 55.3173 144.411 55.9893 145.008 56.8V54.272H149.52V72H145.008V69.408C144.432 70.24 143.632 70.9333 142.608 71.488C141.605 72.0213 140.443 72.288 139.12 72.288C137.627 72.288 136.261 71.904 135.024 71.136C133.808 70.368 132.837 69.2907 132.112 67.904C131.408 66.496 131.056 64.8853 131.056 63.072ZM145.008 63.136C145.008 62.048 144.795 61.12 144.368 60.352C143.941 59.5627 143.365 58.9653 142.64 58.56C141.915 58.1333 141.136 57.92 140.304 57.92C139.472 57.92 138.704 58.1227 138 58.528C137.296 58.9333 136.72 59.5307 136.272 60.32C135.845 61.088 135.632 62.0053 135.632 63.072C135.632 64.1387 135.845 65.0773 136.272 65.888C136.72 66.6773 137.296 67.2853 138 67.712C138.725 68.1387 139.493 68.352 140.304 68.352C141.136 68.352 141.915 68.1493 142.64 67.744C143.365 67.3173 143.941 66.72 144.368 65.952C144.795 65.1627 145.008 64.224 145.008 63.136ZM158.376 48.32V72H153.896V48.32H158.376ZM161.65 63.072C161.65 61.28 162.002 59.6907 162.706 58.304C163.431 56.9173 164.412 55.8507 165.65 55.104C166.887 54.3573 168.263 53.984 169.778 53.984C170.93 53.984 172.028 54.24 173.074 54.752C174.119 55.2427 174.951 55.904 175.57 56.736V48.32H180.114V72H175.57V69.376C175.015 70.2507 174.236 70.9547 173.234 71.488C172.231 72.0213 171.068 72.288 169.746 72.288C168.252 72.288 166.887 71.904 165.65 71.136C164.412 70.368 163.431 69.2907 162.706 67.904C162.002 66.496 161.65 64.8853 161.65 63.072ZM175.602 63.136C175.602 62.048 175.388 61.12 174.962 60.352C174.535 59.5627 173.959 58.9653 173.234 58.56C172.508 58.1333 171.73 57.92 170.898 57.92C170.066 57.92 169.298 58.1227 168.594 58.528C167.89 58.9333 167.314 59.5307 166.866 60.32C166.439 61.088 166.226 62.0053 166.226 63.072C166.226 64.1387 166.439 65.0773 166.866 65.888C167.314 66.6773 167.89 67.2853 168.594 67.712C169.319 68.1387 170.087 68.352 170.898 68.352C171.73 68.352 172.508 68.1493 173.234 67.744C173.959 67.3173 174.535 66.72 174.962 65.952C175.388 65.1627 175.602 64.224 175.602 63.136Z" fill="white"/>
</svg>
